<svg width="220" height="158" viewBox="0 0 220 158" fill="none" xmlns="http://www.w3.org/2000/svg">
<g id="Group 3">
<g id="Group 2">
<path id="Subtract" fill-rule="evenodd" clip-rule="evenodd" d="M110 125C137.614 125 160 102.614 160 75C160 47.3857 137.614 25 110 25C82.3858 25 60 47.3857 60 75C60 102.614 82.3858 125 110 125ZM110 120C134.853 120 155 99.8528 155 75C155 50.1472 134.853 30 110 30C85.1472 30 65 50.1472 65 75C65 99.8528 85.1472 120 110 120Z" fill="#F5F5F5"/>
<g id="Group 1">
<g id="Vector 1" filter="url(#filter0_d_116_7)">
<path d="M7 75C7 75 29 147 110 147C191 147 213 75 213 75" stroke="#F5F5F5" stroke-width="5"/>
</g>
<g id="Vector 2" filter="url(#filter1_d_116_7)">
<path d="M7 75C7 75 29 3 110 3C191 3 213 75 213 75" stroke="#F5F5F5" stroke-width="5"/>
</g>
</g>
</g>
<line id="Line 1" x1="214.432" y1="5.04901" x2="8.43233" y2="149.049" stroke="#F5F5F5" stroke-width="5"/>
</g>
<defs>
<filter id="filter0_d_116_7" x="0.610107" y="74.2678" width="218.78" height="83.2322" filterUnits="userSpaceOnUse" color-interpolation-filters="sRGB">
<feFlood flood-opacity="0" result="BackgroundImageFix"/>
<feColorMatrix in="SourceAlpha" type="matrix" values="0 0 0 0 0 0 0 0 0 0 0 0 0 0 0 0 0 0 127 0" result="hardAlpha"/>
<feOffset dy="4"/>
<feGaussianBlur stdDeviation="2"/>
<feComposite in2="hardAlpha" operator="out"/>
<feColorMatrix type="matrix" values="0 0 0 0 0 0 0 0 0 0 0 0 0 0 0 0 0 0 0.25 0"/>
<feBlend mode="normal" in2="BackgroundImageFix" result="effect1_dropShadow_116_7"/>
<feBlend mode="normal" in="SourceGraphic" in2="effect1_dropShadow_116_7" result="shape"/>
</filter>
<filter id="filter1_d_116_7" x="0.610107" y="0.5" width="218.78" height="83.2322" filterUnits="userSpaceOnUse" color-interpolation-filters="sRGB">
<feFlood flood-opacity="0" result="BackgroundImageFix"/>
<feColorMatrix in="SourceAlpha" type="matrix" values="0 0 0 0 0 0 0 0 0 0 0 0 0 0 0 0 0 0 127 0" result="hardAlpha"/>
<feOffset dy="4"/>
<feGaussianBlur stdDeviation="2"/>
<feComposite in2="hardAlpha" operator="out"/>
<feColorMatrix type="matrix" values="0 0 0 0 0 0 0 0 0 0 0 0 0 0 0 0 0 0 0.25 0"/>
<feBlend mode="normal" in2="BackgroundImageFix" result="effect1_dropShadow_116_7"/>
<feBlend mode="normal" in="SourceGraphic" in2="effect1_dropShadow_116_7" result="shape"/>
</filter>
</defs>
</svg>
